<svg xmlns="http://www.w3.org/2000/svg" width="430" height="430" fill="none" viewBox="0 0 430 430"><path fill="#ebe6ef" d="m294.7 231.95 77.7 47.7v108.8h-77.7m-159.5-156.5-77.7 47.7v108.8h77.7"/><path fill="#ebe6ef" d="m294.7 231.95 77.7 47.7v108.8h-77.7m-159.5-156.5-77.7 47.7v108.8h77.7" opacity=".7" style="mix-blend-mode:multiply"/><path fill="#ebe6ef" d="m215.2 107.35 79.4 79.4v201.7H135.2v-202.4z"/><path fill="#b26836" d="M255.3 388.45h-80.7v-79.7c0-22.3 18.1-40.3 40.3-40.3 22.3 0 40.3 18.1 40.3 40.3v79.7z"/><path fill="#ffc738" d="M245.2 201.95c0 16.7-13.6 30.3-30.3 30.3s-30.3-13.6-30.3-30.3 13.6-30.3 30.3-30.3 30.3 13.6 30.3 30.3"/><path stroke="#121331" stroke-linecap="round" stroke-linejoin="round" stroke-width="7" d="m294.7 231.95 77.6 47.7v108.8h-77.6m-159.5-156.5-77.7 47.7v108.8h77.7m120.1 0h-80.7v-79.7c0-22.3 18.1-40.3 40.3-40.3 22.3 0 40.3 18.1 40.3 40.3v79.7zm-10.1-186.5c0 16.7-13.6 30.3-30.3 30.3s-30.3-13.6-30.3-30.3 13.6-30.3 30.3-30.3 30.3 13.6 30.3 30.3"/><path stroke="#121331" stroke-linecap="round" stroke-linejoin="round" stroke-width="7" d="m215.2 107.35 79.5 79.4v201.7H135.2v-202.4zm0 0v-65.8m-26.6 26.7H242"/></svg>